<?xml version="1.0" encoding="UTF-8"?>
<svg xmlns="http://www.w3.org/2000/svg" width="640" height="480" viewBox="0 0 640 480" fill="none">
  <defs>
    <linearGradient id="empty-bg" x1="0" y1="0" x2="640" y2="480" gradientUnits="userSpaceOnUse">
      <stop offset="0" stop-color="#06080c"/>
      <stop offset="0.5" stop-color="#0a0e14"/>
      <stop offset="1" stop-color="#0f1419"/>
    </linearGradient>
    <filter id="empty-glow" x="-15%" y="-15%" width="130%" height="130%">
      <feGaussianBlur stdDeviation="5" result="blur"/>
      <feColorMatrix in="blur" type="matrix" values="0 0 0 0 0.05  0 0 0 0 0.58  0 0 0 0 0.53  0 0 0 0.45 0" result="colored"/>
      <feMerge><feMergeNode in="colored"/><feMergeNode in="SourceGraphic"/></feMerge>
    </filter>
  </defs>
  <rect width="640" height="480" fill="url(#empty-bg)"/>
  <g filter="url(#empty-glow)" transform="translate(200 80)">
    <path d="M0 40 L120 40 L120 320 L0 320 Z" fill="#0f1419" stroke="#0d9488" stroke-width="2" opacity="0.9"/>
    <path d="M0 40 L40 0 L160 0 L160 40 L120 40 L0 40" fill="#151b23" stroke="#0d9488" stroke-width="2" opacity="0.9"/>
    <rect x="24" y="70" width="72" height="12" rx="2" fill="rgba(13,148,136,0.25)"/>
    <rect x="24" y="95" width="72" height="12" rx="2" fill="rgba(13,148,136,0.15)"/>
    <rect x="24" y="120" width="56" height="12" rx="2" fill="rgba(13,148,136,0.1)"/>
    <path d="M40 200 L200 200" stroke="#22d3ee" stroke-width="3" stroke-dasharray="8 6" opacity="0.6" stroke-linecap="round"/>
    <circle cx="320" cy="200" r="8" fill="none" stroke="#22d3ee" stroke-width="2" opacity="0.5"/>
  </g>
  <g filter="url(#empty-glow)" transform="translate(380 120)">
    <rect x="0" y="0" width="180" height="220" rx="8" fill="#0f1419" stroke="rgba(34,211,238,0.5)" stroke-width="2"/>
    <rect x="0" y="0" width="180" height="36" rx="8" fill="#151b23"/>
    <circle cx="24" cy="18" r="6" fill="#ef4444"/>
    <circle cx="48" cy="18" r="6" fill="#f59e0b"/>
    <circle cx="72" cy="18" r="6" fill="#22c55e"/>
    <text x="16" y="72" font-family="monospace" font-size="18" fill="#0d9488">&gt;_</text>
    <rect x="16" y="85" width="100" height="4" rx="1" fill="rgba(13,148,136,0.3)"/>
    <text x="16" y="120" font-family="sans-serif" font-size="14" fill="#6e7681">&#26242;&#26080;&#21338;&#23458;</text>
    <text x="16" y="145" font-family="sans-serif" font-size="14" fill="#6e7681">&#20889;&#19968;&#31687;&#35797;&#35797;&#65311;</text>
  </g>
  <g opacity="0.15">
    <path d="M0 420h640M0 440h640M0 460h640" stroke="#0d9488" stroke-width="1"/>
  </g>
</svg>
